<svg width="50" height="50" viewBox="0 0 50 50" fill="none" xmlns="http://www.w3.org/2000/svg">
<path d="M35.4167 37.5C36.5217 37.5 37.5815 37.939 38.3629 38.7204C39.1443 39.5018 39.5833 40.5616 39.5833 41.6667C39.5833 42.7718 39.1443 43.8316 38.3629 44.613C37.5815 45.3944 36.5217 45.8334 35.4167 45.8334C33.1042 45.8334 31.25 43.9584 31.25 41.6667C31.25 39.3542 33.1042 37.5 35.4167 37.5ZM2.08333 4.16669H8.89583L10.8542 8.33335H41.6667C42.2192 8.33335 42.7491 8.55285 43.1398 8.94355C43.5305 9.33425 43.75 9.86415 43.75 10.4167C43.75 10.7709 43.6458 11.125 43.5 11.4584L36.0417 24.9375C35.3333 26.2084 33.9583 27.0834 32.3958 27.0834H16.875L15 30.4792L14.9375 30.7292C14.9375 30.8673 14.9924 30.9998 15.09 31.0975C15.1877 31.1951 15.3202 31.25 15.4583 31.25H39.5833V35.4167H14.5833C12.2708 35.4167 10.4167 33.5417 10.4167 31.25C10.4167 30.5209 10.6042 29.8334 10.9167 29.25L13.75 24.1459L6.25 8.33335H2.08333V4.16669ZM14.5833 37.5C15.6884 37.5 16.7482 37.939 17.5296 38.7204C18.311 39.5018 18.75 40.5616 18.75 41.6667C18.75 42.7718 18.311 43.8316 17.5296 44.613C16.7482 45.3944 15.6884 45.8334 14.5833 45.8334C12.2708 45.8334 10.4167 43.9584 10.4167 41.6667C10.4167 39.3542 12.2708 37.5 14.5833 37.5ZM33.3333 22.9167L39.125 12.5H12.7917L17.7083 22.9167H33.3333Z" fill="white"/>
</svg>
